# xmcd CD database file
#
# Track frame offsets:
#	150
#	11434
#	27497
#	44235
#	58662
#	71565
#	86497
#	100635
#	117600
#	133815
#	153492
#	168622
#	186780
#
# Disc length: 2658 seconds
#
# Revision: 8
# Processed by: cddbd v1.5.2PL0 Copyright (c) Steve Scherf et al.
# Submitted via: CDex 1.75
#
DISCID=b80a600d
DTITLE=Adam Brand - Good Friends
DYEAR=1999
DGENRE=Country
TTITLE0=Big Old Car
TTITLE1=When The Needle Hits The Vinyl
TTITLE2=Good Friends
TTITLE3=You Are To Me
TTITLE4=I Did What?
TTITLE5=Beating ARound The Bush
TTITLE6=Little SIsters
TTITLE7=Good Things In Life
TTITLE8=WHen I Get My Wheels
TTITLE9=Little Girl
TTITLE10=Every Man Likes You
TTITLE11=You're A Rev Head
TTITLE12=One More Time Tonight
EXTD=YEAR: 1999
EXTT0=
EXTT1=
EXTT2=
EXTT3=
EXTT4=
EXTT5=
EXTT6=
EXTT7=
EXTT8=
EXTT9=
EXTT10=
EXTT11=
EXTT12=
PLAYORDER=
